<svg width="24" height="24" viewBox="0 0 24 24" fill="none" xmlns="http://www.w3.org/2000/svg">
<g clip-path="url(#clip0)">
<path d="M0.338524 4.42192L2.93552 6.12992V16.9969L0.223524 19.6729C-0.252476 20.1439 0.0825238 20.9569 0.750524 20.9569H6.61952C7.28652 20.9569 7.62352 20.1449 7.14652 19.6729L4.43452 16.9969V9.08492C7.21552 15.0009 9.92653 20.7579 9.86152 20.6269C10.1355 21.1829 11.0025 21.1979 11.2375 20.5519L11.2385 20.5499C11.2385 20.5499 11.2395 20.5489 11.2395 20.5479C11.8895 18.7549 13.2835 14.9099 13.1945 15.1539C13.2445 15.0149 15.6155 8.24792 15.6525 8.14292V17.9159L13.9115 19.6809C13.4445 20.1549 13.7815 20.9579 14.4455 20.9579H23.2505C23.9125 20.9579 24.2505 20.1589 23.7865 19.6839L22.1135 17.9709L22.0465 6.03792L23.7775 4.32992C24.2535 3.85892 23.9185 3.04592 23.2505 3.04592C22.5485 3.04592 25.7955 3.04492 16.3805 3.04992C15.4225 3.07792 15.7465 3.93892 12.3945 12.8219L8.28452 3.49292C8.16453 3.22092 7.89452 3.04492 7.59752 3.04492H0.750524C0.00852376 3.04592 -0.282476 4.01492 0.338524 4.42192ZM2.57752 19.4579L3.68452 18.3649L4.79152 19.4579H2.57752ZM17.1525 4.54592H21.4235C20.9445 5.08092 20.5425 5.23692 20.5445 5.73092L20.6155 18.2819C20.6175 18.7579 21.0065 18.9249 21.4695 19.4569H16.2395C16.7565 18.8699 17.1535 18.7089 17.1535 18.2229V4.54592H17.1525ZM7.10852 4.54592L11.6625 14.8809L10.4365 18.3279C4.26052 5.21192 4.47752 5.00592 3.25552 4.54592H7.10852Z" fill="#9ED1FF"/>
</g>
<defs>
<clipPath id="clip0">
<rect width="24" height="24" fill="white"/>
</clipPath>
</defs>
</svg>
