<svg width="24" height="24" viewBox="0 0 24 24" fill="none" xmlns="http://www.w3.org/2000/svg">
<path d="M0.473603 19.5954C2.6956 21.0054 5.2816 21.7504 7.9516 21.7504C11.8616 21.7504 15.4446 20.2484 18.0416 17.5214C20.5266 14.9114 21.8936 11.4044 21.8256 7.84538C22.7676 7.03938 23.8756 5.50038 23.8756 4.00038C23.8756 3.42538 23.2516 3.06038 22.7456 3.35338C21.8606 3.87338 21.0536 4.00938 20.2236 3.77638C18.5286 2.12438 16.0056 1.77638 13.8796 2.92238C12.0216 3.92238 10.9886 5.75238 11.0816 7.75238C7.9426 7.36938 5.0426 5.79538 3.0206 3.34938C2.6886 2.95038 2.0586 2.99738 1.7946 3.44938C0.820603 5.11738 0.830603 7.05038 1.6776 8.61138C1.2746 8.68238 1.0256 9.02138 1.0256 9.38838C1.0256 10.9574 1.7316 12.3994 2.8686 13.3834C2.6566 13.5874 2.5866 13.8904 2.6766 14.1604C3.1766 15.6624 4.3086 16.8364 5.7236 17.4244C4.1846 18.1594 2.4826 18.4044 0.967603 18.2184C0.183603 18.1124 -0.203397 19.1664 0.473603 19.5954ZM8.1566 17.6814C8.7176 17.2504 8.4196 16.3524 7.7156 16.3374C6.4756 16.3114 5.3466 15.7004 4.6436 14.7394C4.9826 14.7174 5.3336 14.6654 5.6676 14.5754C6.4286 14.3694 6.3926 13.2714 5.6196 13.1164C4.2166 12.8344 3.1156 11.8124 2.7026 10.4964C3.0796 10.5894 3.4636 10.6414 3.8466 10.6484C4.6056 10.6524 4.8926 9.67938 4.2736 9.27238C2.8786 8.35338 2.2836 6.73038 2.6776 5.20438C5.1136 7.67238 8.4186 9.15938 11.9146 9.32738C12.4156 9.35838 12.7916 8.88738 12.6816 8.41038C12.2066 6.35138 13.3566 4.90838 14.5916 4.24338C15.8136 3.58338 17.7756 3.37738 19.2796 4.95538C19.7266 5.42638 21.2346 5.44438 22.0016 5.26538C21.6576 5.91338 21.1286 6.52838 20.6336 6.87438C20.4226 7.02238 20.3016 7.26838 20.3146 7.52538C20.4756 10.8104 19.2516 14.0764 16.9566 16.4854C14.6446 18.9124 11.4476 20.2494 7.9526 20.2494C6.5626 20.2494 5.1996 20.0234 3.9116 19.5874C5.4516 19.2894 6.9146 18.6374 8.1566 17.6814Z" fill="#9ED1FF"/>
</svg>
