<svg width="48" height="48" viewBox="0 0 48 48" fill="none" xmlns="http://www.w3.org/2000/svg"><path d="M10 12v24.36a5.867 5.867 0 0 1 3.248-.235 6.02 6.02 0 0 1 4.703 5.095c.127.938.02 1.893-.311 2.78h12.72a5.754 5.754 0 0 1-.311-2.78 6.02 6.02 0 0 1 4.703-5.095A5.867 5.867 0 0 1 38 36.36V12H10z" fill="#61AFF3"/><path d="M42 4H6a4 4 0 0 0-4 4v12a4 4 0 0 0 4 4h4V12h28v12h4a4 4 0 0 0 4-4V8a4 4 0 0 0-4-4z" fill="#ADD8FF"/><path d="M24 30a6 6 0 1 1 6-6 6.007 6.007 0 0 1-6 6z" fill="#ADD8FF"/><path d="M13.248 36.125A5.868 5.868 0 0 0 10 36.36V40a4.012 4.012 0 0 0 4 4h3.64c.33-.887.438-1.842.311-2.78a6.02 6.02 0 0 0-4.703-5.095zm21.504 0a6.02 6.02 0 0 0-4.703 5.095A5.752 5.752 0 0 0 30.36 44H34a4.012 4.012 0 0 0 4-4v-3.64a5.868 5.868 0 0 0-3.248-.235z" fill="#3B95E4"/></svg>