<svg width="48" height="48" viewBox="0 0 48 48" fill="none" xmlns="http://www.w3.org/2000/svg"><path d="M6.64 6.1a1.99 1.99 0 0 0-1.8.28c-.529.37-.843.975-.84 1.62v28c.006.857.55 1.618 1.36 1.9l12 4c.208.062.423.096.64.1V9.88L6.64 6.1z" fill="#61AFF3"/><path d="M29.36 6.1L18 9.88V42c.217-.004.432-.038.64-.1L30 38.12V6a2.253 2.253 0 0 0-.64.1z" fill="#ADD8FF"/><path d="M42.64 10.1l-12-4A2.095 2.095 0 0 0 30 6v32.12l11.36 3.78c.208.063.423.096.64.1.418.006.826-.128 1.16-.38.529-.37.843-.975.84-1.62V12a2.027 2.027 0 0 0-1.36-1.9z" fill="#3B95E4"/></svg>