<svg width="48" height="20" viewBox="0 0 48 20" fill="none" xmlns="http://www.w3.org/2000/svg"><g clip-path="url(#a)"><path d="M8.775 2.579c-.562.675-1.462 1.208-2.362 1.132-.113-.914.328-1.884.844-2.484C7.819.533 8.803.038 9.6 0c.094.951-.272 1.884-.825 2.579zm.816 1.313c-1.303-.077-2.419.751-3.038.751-.628 0-1.575-.713-2.606-.694-1.34.019-2.587.79-3.272 2.017-1.406 2.455-.365 6.09.994 8.087.666.99 1.463 2.075 2.513 2.036.993-.038 1.387-.656 2.587-.656 1.21 0 1.556.656 2.606.637 1.088-.019 1.772-.99 2.438-1.979.76-1.122 1.069-2.217 1.087-2.274-.018-.019-2.1-.828-2.118-3.263-.02-2.036 1.64-3.007 1.715-3.064-.937-1.408-2.4-1.56-2.906-1.598zm7.528-2.76v14.834h2.269v-5.072h3.14c2.87 0 4.885-1.998 4.885-4.89 0-2.893-1.978-4.872-4.81-4.872H17.12zm2.269 1.941h2.615c1.97 0 3.094 1.066 3.094 2.94 0 1.875-1.125 2.95-3.103 2.95h-2.606v-5.89zM31.557 16.08c1.425 0 2.747-.733 3.347-1.893h.046v1.779h2.1V8.582c0-2.14-1.687-3.52-4.284-3.52-2.41 0-4.19 1.399-4.256 3.32h2.043c.17-.913 1.004-1.512 2.147-1.512 1.388 0 2.166.656 2.166 1.865v.818l-2.831.171c-2.635.162-4.06 1.256-4.06 3.159 0 1.922 1.472 3.197 3.582 3.197zm.609-1.76c-1.21 0-1.978-.59-1.978-1.494 0-.933.74-1.475 2.156-1.56l2.522-.162v.837c0 1.39-1.163 2.379-2.7 2.379zM39.854 20c2.212 0 3.253-.856 4.162-3.454L48 5.205h-2.306l-2.672 8.763h-.047l-2.672-8.763h-2.371l3.843 10.799-.206.656c-.347 1.114-.91 1.542-1.912 1.542a7.38 7.38 0 0 1-.666-.038v1.779c.131.038.694.057.862.057z" fill="#61AFF3"/></g><defs><clipPath id="a"><path fill="#fff" d="M0 0h48v20H0z"/></clipPath></defs></svg>