<svg width="48" height="48" viewBox="0 0 48 48" fill="none" xmlns="http://www.w3.org/2000/svg"><path d="M32.715 21.15c.394-2.66-1.61-4.091-4.35-5.046l.89-3.605-2.17-.546-.866 3.51c-.57-.144-1.156-.28-1.738-.414l.871-3.533-2.168-.547-.89 3.604a72.951 72.951 0 0 1-1.385-.33l.003-.011-2.993-.756-.577 2.344s1.61.373 1.576.396c.628.08 1.076.647 1.011 1.276l-2.435 9.876a.789.789 0 0 1-.994.521c.021.032-1.577-.398-1.577-.398l-1.077 2.512 2.823.712c.526.133 1.04.272 1.547.404l-.898 3.646 2.167.547.89-3.608a81.98 81.98 0 0 0 1.729.454l-.886 3.59 2.17.547.897-3.639c3.7.708 6.482.423 7.653-2.962a3.866 3.866 0 0 0-1.993-5.322 3.486 3.486 0 0 0 2.77-3.221zm-4.958 7.031c-.67 2.725-5.207 1.252-6.677.883l1.191-4.831c1.47.371 6.187 1.106 5.486 3.948zm.672-7.07c-.612 2.479-4.388 1.22-5.613.91l1.08-4.38c1.225.308 5.17.885 4.533 3.47z" fill="#3B95E4"/><path d="M23.897 17.64l-1.08 4.382c1.224.309 5 1.568 5.612-.91.637-2.586-3.307-3.162-4.532-3.471zm-1.625 6.593l-1.192 4.83c1.47.37 6.008 1.843 6.678-.882.7-2.842-4.016-3.577-5.486-3.948z" fill="#ADD8FF"/><path d="M24 4C12.954 4 4 12.954 4 24s8.954 20 20 20 20-8.954 20-20S35.046 4 24 4zm8.716 17.15a3.486 3.486 0 0 1-2.77 3.223 3.866 3.866 0 0 1 1.994 5.322c-1.172 3.384-3.954 3.67-7.654 2.961l-.898 3.64-2.17-.547.887-3.59a81.361 81.361 0 0 1-1.73-.454l-.889 3.607-2.167-.547.898-3.646c-.507-.131-1.022-.27-1.547-.404l-2.823-.712 1.077-2.512s1.599.43 1.577.399a.789.789 0 0 0 .994-.521l2.435-9.876a1.166 1.166 0 0 0-1.01-1.277c.033-.023-1.577-.396-1.577-.396l.577-2.344 2.992.756-.002.011c.45.113.913.221 1.386.33l.889-3.604 2.168.547-.87 3.533c.581.134 1.167.27 1.738.414l.864-3.51 2.17.547-.888 3.605c2.74.954 4.743 2.385 4.349 5.046z" fill="#ADD8FF"/></svg>