<svg width="48" height="48" viewBox="0 0 48 48" fill="none" xmlns="http://www.w3.org/2000/svg"><path d="M34.434 33.391c2.882 0 5.218-2.57 5.218-5.739 0-3.17-2.336-5.739-5.218-5.739-2.881 0-5.217 2.57-5.217 5.74 0 3.169 2.336 5.738 5.217 5.738z" fill="#ADD8FF"/><path d="M28.919 27.652a5.93 5.93 0 0 1 1.341-3.76c-.983-1.203-2.412-1.979-4.024-1.979-2.964 0-5.367 2.57-5.367 5.74 0 3.169 2.403 5.738 5.367 5.738 1.612 0 3.04-.776 4.024-1.979a5.921 5.921 0 0 1-1.341-3.76z" fill="#3B95E4"/><path d="M41.044 8.348H6.957c-2.689 0-4.87 2.156-4.87 4.816v21.672c0 2.66 2.181 4.816 4.87 4.816h34.087c2.69 0 4.87-2.156 4.87-4.816V13.164c0-2.66-2.18-4.816-4.87-4.816zm-7.304 24.08a4.86 4.86 0 0 1-3.652-1.661 4.86 4.86 0 0 1-3.652 1.66c-2.69 0-4.87-2.155-4.87-4.815 0-2.66 2.18-4.816 4.87-4.816a4.86 4.86 0 0 1 3.652 1.66 4.86 4.86 0 0 1 3.652-1.66c2.69 0 4.87 2.156 4.87 4.816 0 2.66-2.18 4.816-4.87 4.816z" fill="#61AFF3"/></svg>