<svg width="48" height="20" viewBox="0 0 48 20" fill="none" xmlns="http://www.w3.org/2000/svg">
<g clip-path="url(#clip0)">
<path d="M8.77536 2.5785C8.21286 3.25404 7.31286 3.78687 6.41286 3.71075C6.30036 2.79734 6.74099 1.82683 7.25661 1.2274C7.81911 0.532826 8.80349 0.038059 9.60036 0C9.69411 0.951475 9.32849 1.88392 8.77536 2.5785ZM9.59099 3.89153C8.28786 3.81541 7.17224 4.6432 6.55349 4.6432C5.92536 4.6432 4.97849 3.92959 3.94724 3.94862C2.60661 3.96765 1.35974 4.73834 0.675361 5.96575C-0.730889 8.42055 0.309736 12.0552 1.66911 14.0533C2.33474 15.0428 3.13161 16.1275 4.18161 16.0894C5.17536 16.0514 5.56911 15.4329 6.76911 15.4329C7.97849 15.4329 8.32536 16.0894 9.37536 16.0704C10.4629 16.0514 11.1472 15.0809 11.8129 14.0913C12.5722 12.9686 12.8816 11.8744 12.9004 11.8173C12.8816 11.7983 10.8004 10.9895 10.7816 8.55376C10.7629 6.5176 12.4222 5.5471 12.4972 5.49001C11.5597 4.08183 10.0972 3.92959 9.59099 3.89153ZM17.1191 1.13226V15.9657H19.3879V10.8944H22.5285C25.3972 10.8944 27.4129 8.89629 27.4129 6.00381C27.4129 3.11132 25.4347 1.13226 22.6035 1.13226H17.1191ZM19.3879 3.07326H22.0035C23.9722 3.07326 25.0972 4.13892 25.0972 6.01332C25.0972 7.88773 23.9722 8.96289 21.9941 8.96289H19.3879V3.07326ZM31.5566 16.0799C32.9816 16.0799 34.3035 15.3473 34.9035 14.1865H34.9504V15.9657H37.0504V8.5823C37.0504 6.44148 35.3629 5.06185 32.766 5.06185C30.3566 5.06185 28.5754 6.46051 28.5097 8.38249H30.5535C30.7222 7.46908 31.5566 6.86965 32.7004 6.86965C34.0879 6.86965 34.866 7.52617 34.866 8.73454V9.55281L32.0347 9.72407C29.4004 9.88582 27.9754 10.98 27.9754 12.883C27.9754 14.8049 29.4472 16.0799 31.5566 16.0799ZM32.166 14.3197C30.9566 14.3197 30.1879 13.7298 30.1879 12.8259C30.1879 11.8934 30.9285 11.3511 32.3441 11.2655L34.866 11.1037V11.941C34.866 13.3302 33.7035 14.3197 32.166 14.3197ZM39.8535 20C42.066 20 43.1066 19.1437 44.016 16.5461L48.0004 5.20457H45.6941L43.0222 13.9677H42.9754L40.3035 5.20457H37.9316L41.7754 16.0038L41.5691 16.6603C41.2222 17.7736 40.6597 18.2017 39.6566 18.2017C39.4785 18.2017 39.1316 18.1827 38.991 18.1637V19.9429C39.1222 19.981 39.6847 20 39.8535 20Z" fill="#61AFF3"/>
</g>
<defs>
<clipPath id="clip0">
<rect width="48" height="20" fill="white"/>
</clipPath>
</defs>
</svg>
