<svg width="48" height="48" viewBox="0 0 48 48" fill="none" xmlns="http://www.w3.org/2000/svg">
<path d="M40.6804 18.6402L12.7004 4.64021C11.5954 4.09135 10.348 3.89639 9.12823 4.0819C7.90843 4.2674 6.77543 4.82434 5.88352 5.67689C4.99161 6.52943 4.38413 7.63615 4.14379 8.84635C3.90346 10.0565 4.04195 11.3114 4.5404 12.4401L8.8204 22.0001L9.3404 23.1801C9.44936 23.4397 9.50548 23.7184 9.50548 24C9.50548 24.2816 9.44936 24.5603 9.3404 24.8199L8.8204 26.0001L4.5404 35.5601C4.02828 36.6853 3.88212 37.9429 4.12252 39.1556C4.36292 40.3683 4.97775 41.475 5.8804 42.3198C6.98366 43.3933 8.46106 43.9959 10.0004 44.0001C10.9369 43.9906 11.8594 43.7719 12.7004 43.3599L40.6804 29.3599C41.6776 28.8638 42.5166 28.0993 43.1031 27.1525C43.6896 26.2056 44.0004 25.1139 44.0004 24.0001C44.0004 22.8863 43.6896 21.7945 43.1031 20.8477C42.5166 19.9008 41.6776 19.1363 40.6804 18.6402Z" fill="#61AFF3"/>
<path d="M28.9203 24C28.9212 24.2629 28.8701 24.5234 28.77 24.7665C28.6698 25.0095 28.5225 25.2304 28.3366 25.4163C28.1507 25.6022 27.9298 25.7495 27.6868 25.8497C27.4437 25.9498 27.1832 26.0009 26.9203 26H8.82031L9.34031 24.8198C9.44927 24.5602 9.50539 24.2815 9.50539 23.9999C9.50539 23.7183 9.44927 23.4396 9.34031 23.18L8.82031 22H26.9203C27.1832 21.9991 27.4437 22.0502 27.6868 22.1504C27.9298 22.2506 28.1507 22.3978 28.3366 22.5837C28.5225 22.7696 28.6698 22.9905 28.77 23.2336C28.8701 23.4766 28.9212 23.7371 28.9203 24Z" fill="#ADD8FF"/>
</svg>
