<svg width="48" height="48" viewBox="0 0 48 48" fill="none" xmlns="http://www.w3.org/2000/svg">
<path d="M34.4342 33.3913C37.3157 33.3913 39.6516 30.8218 39.6516 27.6522C39.6516 24.4826 37.3157 21.9131 34.4342 21.9131C31.5527 21.9131 29.2168 24.4826 29.2168 27.6522C29.2168 30.8218 31.5527 33.3913 34.4342 33.3913Z" fill="#ADD8FF"/>
<path d="M28.9188 27.6522C28.9188 26.2066 29.4355 24.9016 30.2604 23.8924C29.2768 22.689 27.8478 21.9131 26.2356 21.9131C23.2718 21.9131 20.8691 24.4826 20.8691 27.6522C20.8691 30.8218 23.2718 33.3913 26.2356 33.3913C27.8478 33.3913 29.2768 32.6154 30.2604 31.412C29.4355 30.4029 28.9188 29.0978 28.9188 27.6522Z" fill="#3B95E4"/>
<path d="M41.0444 8.34766H6.95746C4.26812 8.34766 2.08789 10.5039 2.08789 13.1637V34.8359C2.08789 37.4957 4.26812 39.652 6.95746 39.652H41.0444C43.7339 39.652 45.914 37.4957 45.914 34.8359V13.1637C45.914 10.5039 43.7339 8.34766 41.0444 8.34766ZM33.7401 32.4279C32.2773 32.4279 30.9804 31.7768 30.0879 30.767C29.1953 31.7768 27.8986 32.4279 26.4357 32.4279C23.7464 32.4279 21.5662 30.2717 21.5662 27.6119C21.5662 24.9521 23.7464 22.7958 26.4357 22.7958C27.8986 22.7958 29.1953 23.4469 30.0879 24.4568C30.9804 23.4469 32.2773 22.7958 33.7401 22.7958C36.4296 22.7958 38.6098 24.9521 38.6098 27.6119C38.6098 30.2717 36.4296 32.4279 33.7401 32.4279Z" fill="#61AFF3"/>
</svg>
