<svg width="48" height="48" viewBox="0 0 48 48" fill="none" xmlns="http://www.w3.org/2000/svg">
<path d="M6.64002 6.09986C6.03006 5.89688 5.3596 6.00108 4.84002 6.37964C4.31108 6.74908 3.99714 7.35458 4.00002 7.99976V35.9998C4.00598 36.857 4.55052 37.6177 5.36002 37.8998L17.36 41.8998C17.5678 41.9623 17.7831 41.9959 18 41.9998V9.87964L6.64002 6.09986Z" fill="#61AFF3"/>
<path d="M29.36 6.1001L18 9.87988V42C18.2169 41.9961 18.4323 41.9625 18.64 41.9L30 38.1201V6C29.783 6.00236 29.5674 6.03608 29.36 6.1001Z" fill="#ADD8FF"/>
<path d="M42.64 10.1001L30.64 6.1001C30.4319 6.03332 30.2159 6 30 6V38.1201L41.36 41.9C41.5677 41.9625 41.7831 41.9961 42 42C42.4182 42.006 42.8264 41.8723 43.16 41.6201C43.689 41.2507 44.0029 40.6451 44 40V12C43.994 11.1428 43.4495 10.3821 42.64 10.1001Z" fill="#3B95E4"/>
</svg>
