<svg width="48" height="48" viewBox="0 0 48 48" fill="none" xmlns="http://www.w3.org/2000/svg">
<path d="M32.7151 21.1505C33.1086 18.4894 31.1052 17.0587 28.3657 16.1044L29.2544 12.4994L27.0846 11.9525L26.2195 15.4625C25.649 15.3187 25.0632 15.1831 24.4811 15.0487L25.3524 11.5156L23.1839 10.9688L22.2946 14.5725C21.8224 14.4637 21.3589 14.3562 20.9091 14.2432L20.9115 14.2318L17.9193 13.4762L17.3421 15.82C17.3421 15.82 18.9519 16.1931 18.9181 16.2162C19.5455 16.2969 19.9941 16.8632 19.9291 17.4924L17.4943 27.368C17.367 27.7848 16.9261 28.0195 16.5094 27.8922C16.5062 27.8913 16.503 27.8903 16.4999 27.8893C16.5215 27.9211 14.9228 27.4911 14.9228 27.4911L13.8457 30.0029L16.6692 30.7149C17.1945 30.848 17.7092 30.9874 18.2161 31.1186L17.3181 34.7649L19.4853 35.3117L20.3746 31.7043C20.9666 31.8668 21.5413 32.0168 22.1037 32.1581L21.2175 35.7486L23.3872 36.2955L24.2852 32.6561C27.985 33.3642 30.7672 33.0786 31.9382 29.6943C32.9 27.7882 32.1345 25.4634 30.2284 24.5017C30.1356 24.4548 30.0409 24.4117 29.9446 24.3725C31.4916 24.0507 32.6286 22.7283 32.7151 21.1505ZM27.7575 28.1812C27.0871 30.9061 22.5505 29.433 21.0796 29.0636L22.2712 24.233C23.7419 24.6043 28.4583 25.3392 27.7575 28.1812ZM28.4286 21.1112C27.8168 23.5898 24.0411 22.3305 22.8162 22.0217L23.8964 17.6406C25.1213 17.9493 29.0658 18.5256 28.4286 21.1112V21.1112Z" fill="#3B95E4"/>
<path d="M23.8968 17.6406L22.8166 22.0218C24.0415 22.3307 27.8173 23.5898 28.4291 21.1113C29.0663 18.5258 25.1217 17.9495 23.8968 17.6406ZM22.2716 24.2332L21.0801 29.0637C22.5509 29.4331 27.0875 30.9062 27.7579 28.1813C28.4587 25.3394 23.7423 24.6044 22.2716 24.2332Z" fill="#ADD8FF"/>
<path d="M24 4C12.9543 4 4 12.9543 4 24C4 35.0457 12.9543 44 24 44C35.0457 44 44 35.0457 44 24C44 12.9543 35.0457 4 24 4ZM32.7159 21.1508C32.6296 22.7286 31.4926 24.0509 29.9456 24.3728C30.0419 24.412 30.1365 24.4551 30.2294 24.502C32.1354 25.4636 32.9009 27.7885 31.9392 29.6946C30.7681 33.0789 27.986 33.3645 24.2861 32.6564L23.3881 36.2958L21.2184 35.7489L22.1046 32.1583C21.5422 32.0171 20.9675 31.8671 20.3755 31.7046L19.4862 35.312L17.319 34.7651L18.217 31.1189C17.7101 30.9877 17.1954 30.8483 16.6702 30.7152L13.8467 30.0032L14.9238 27.4913C14.9238 27.4913 16.5225 27.9214 16.5008 27.8895C16.504 27.8905 16.5072 27.8915 16.5102 27.8925C16.927 28.0197 17.368 27.785 17.4952 27.3683L19.93 17.4927C19.995 16.8634 19.5464 16.2972 18.9191 16.2164C18.9529 16.1934 17.343 15.8202 17.343 15.8202L17.9203 13.4764L20.9125 14.2321L20.91 14.2434C21.3599 14.3564 21.8234 14.464 22.2955 14.5727L23.1848 10.969L25.3534 11.5159L24.4821 15.0489C25.0641 15.1833 25.6499 15.319 26.2205 15.4628L27.0855 11.9528L29.2553 12.4996L28.3667 16.1046C31.1062 17.059 33.1096 18.4896 32.7159 21.1508Z" fill="#ADD8FF"/>
</svg>
