<svg width="48" height="48" viewBox="0 0 48 48" fill="none" xmlns="http://www.w3.org/2000/svg">
<path d="M10 12V36.3599C11.0389 35.9766 12.1652 35.8951 13.2485 36.125C15.735 36.6593 17.6174 38.6989 17.9512 41.2201C18.0778 42.1582 17.9708 43.113 17.64 44H30.36C30.0292 43.1132 29.9223 42.1582 30.0488 41.2201C30.3826 38.6989 32.2649 36.6593 34.7515 36.125C35.8349 35.8951 36.9611 35.9766 38 36.3599V12H10Z" fill="#61AFF3"/>
<path d="M42 4H6C3.7909 4 2 5.7909 2 8V20C2 22.2091 3.7909 24 6 24H10V12H38V24H42C44.2091 24 46 22.2091 46 20V8C46 5.7909 44.2091 4 42 4Z" fill="#ADD8FF"/>
<path d="M24 30C20.6863 30 18 27.3137 18 24C18 20.6863 20.6863 18 24 18C27.3137 18 30 20.6863 30 24C29.9964 27.3122 27.3122 29.9964 24 30Z" fill="#ADD8FF"/>
<path d="M13.2485 36.1248C12.1652 35.895 11.039 35.9764 10 36.3597V39.9999C10.0065 42.2063 11.7935 43.9934 14 43.9999H17.64C17.9709 43.113 18.0778 42.1581 17.9512 41.22C17.6174 38.6987 15.735 36.6592 13.2485 36.1248ZM34.7515 36.1248C32.2649 36.6592 30.3826 38.6987 30.0488 41.22C29.9222 42.1581 30.0291 43.113 30.36 43.9999H34C36.2065 43.9934 37.9935 42.2063 38 39.9999V36.3597C36.961 35.9764 35.8348 35.895 34.7515 36.1248Z" fill="#3B95E4"/>
</svg>
