<svg width="88" height="88" viewBox="0 0 88 88" fill="none" xmlns="http://www.w3.org/2000/svg">
<path d="M44 83C38.8784 83 33.807 81.9912 29.0753 80.0313C24.3436 78.0714 20.0443 75.1986 16.4228 71.5772C12.8013 67.9557 9.92863 63.6563 7.9687 58.9247C6.00876 54.193 5 49.1215 5 44C5 38.8784 6.00877 33.807 7.9687 29.0753C9.92863 24.3436 12.8014 20.0443 16.4228 16.4228C20.0443 12.8013 24.3437 9.92863 29.0754 7.9687C33.8071 6.00876 38.8785 5 44 5C49.1216 5 54.193 6.00877 58.9247 7.9687C63.6564 9.92864 67.9557 12.8014 71.5772 16.4228C75.1987 20.0443 78.0714 24.3437 80.0313 29.0754C81.9912 33.8071 83 38.8785 83 44C83 49.1216 81.9912 54.193 80.0313 58.9247C78.0714 63.6564 75.1986 67.9557 71.5772 71.5772C67.9557 75.1987 63.6563 78.0714 58.9246 80.0313C54.1929 81.9912 49.1215 83 44 83L44 83Z" stroke="white" stroke-width="10"/>
</svg>
