<svg width="165" height="34" viewBox="0 0 165 34" fill="none" xmlns="http://www.w3.org/2000/svg"><mask id="a" maskUnits="userSpaceOnUse" x="0" y="0" width="32" height="34"><path fill-rule="evenodd" clip-rule="evenodd" d="M0 0h32v34H0V0z" fill="#fff"/></mask><g mask="url(#a)" fill-rule="evenodd" clip-rule="evenodd" fill="#9ED1FF"><path d="M7.509 18.684V10.93H0v7.755C0 27.702 7.228 34 17.577 34h7.038v-6.852h-7.038c-6.21 0-10.068-3.243-10.068-8.464z"/><path d="M17.389 0l-3.85.003.003 6.99h3.847c6.636 0 7.2 4.806 7.216 6.278l.004.378H13.552v6.994H31.95l.041-3.457c0-.019.021-1.857 0-3.981C31.927 6.845 27.331 0 17.39 0z"/></g><path fill-rule="evenodd" clip-rule="evenodd" d="M59.734 27.398c1.892 0 3.533-.305 4.922-.917 1.389-.61 2.445-1.344 3.17-2.2.726-.856 1.088-1.602 1.088-2.238 0-.195-.08-.36-.24-.495a.859.859 0 0 0-.57-.201h-4.83c-.296 0-.51.03-.646.091-.135.061-.313.214-.535.459-.32.367-.657.666-1.014.898-.356.233-.83.349-1.42.349-.908 0-1.61-.336-2.1-1.009-.492-.672-.75-1.559-.775-2.659v-.22h11.688a.93.93 0 0 0 .682-.275.92.92 0 0 0 .276-.679v-.917c0-1.883-.362-3.564-1.087-5.043-.725-1.48-1.82-2.64-3.282-3.484-1.462-.844-3.25-1.266-5.364-1.266-2.925 0-5.248.82-6.969 2.458-1.72 1.638-2.63 3.912-2.728 6.822v1.137c.05 3.056.934 5.385 2.655 6.987 1.72 1.602 4.08 2.402 7.079 2.402zm2.913-11.883h-5.863v-.074c0-1.173.252-2.084.756-2.732.504-.648 1.223-.972 2.157-.972.934 0 1.66.324 2.175.972.517.648.775 1.559.775 2.732v.074zm14.49 11.517a.87.87 0 0 0 .663-.276.909.909 0 0 0 .259-.641V15.918c0-1.1.245-1.913.737-2.439s1.118-.788 1.88-.788c.787 0 1.426.262 1.918.788.491.526.737 1.351.737 2.476v10.16a.86.86 0 0 0 .276.66.965.965 0 0 0 .683.257h4.535a.87.87 0 0 0 .663-.276.909.909 0 0 0 .258-.641v-10.16c0-1.125.24-1.95.72-2.476.479-.526 1.1-.788 1.861-.788.811 0 1.457.262 1.936.788.48.526.719 1.351.719 2.476v10.16a.86.86 0 0 0 .276.66.965.965 0 0 0 .683.257h4.534a.869.869 0 0 0 .664-.276.909.909 0 0 0 .258-.641V15.698c0-2.69-.633-4.713-1.899-6.07-1.265-1.357-2.906-2.036-4.922-2.036a6.879 6.879 0 0 0-3.392.88c-1.057.587-1.88 1.345-2.47 2.275-1.008-2.103-2.864-3.155-5.567-3.155-1.18 0-2.237.245-3.171.734-.934.489-1.696 1.088-2.286 1.797V8.876a.891.891 0 0 0-.258-.66.901.901 0 0 0-.664-.257h-4.277a.918.918 0 0 0-.645.257.86.86 0 0 0-.276.66v17.239a.88.88 0 0 0 .276.642c.184.183.4.275.645.275h4.646zm39.083.365c2.384 0 4.258-.745 5.622-2.237 1.364-1.491 2.096-3.619 2.194-6.382.025-.318.037-.746.037-1.284l-.001-.27a16.607 16.607 0 0 0-.036-1.05c-.098-2.665-.836-4.762-2.212-6.29-1.377-1.528-3.245-2.293-5.604-2.293-2.213 0-3.995.71-5.347 2.128V1.906a.891.891 0 0 0-.258-.66.9.9 0 0 0-.663-.257h-4.757a.966.966 0 0 0-.682.257.861.861 0 0 0-.276.66v24.208a.86.86 0 0 0 .276.66.967.967 0 0 0 .682.257h4.388a.87.87 0 0 0 .664-.275.908.908 0 0 0 .258-.642v-1.137c1.327 1.613 3.232 2.42 5.715 2.42zm-2.139-5.097c-1.057 0-1.844-.336-2.36-1.009-.516-.672-.799-1.522-.848-2.549a20.899 20.899 0 0 1-.037-1.393c0-.587.013-1.04.037-1.357.049-.954.338-1.743.867-2.366.528-.624 1.309-.935 2.341-.935 1.106 0 1.899.323 2.378.971.479.648.756 1.547.83 2.696.024.245.036.624.036 1.137v.212a10.85 10.85 0 0 1-.036.925c-.074 1.15-.351 2.048-.83 2.696-.479.648-1.272.972-2.378.972zm17.882-16.982a.928.928 0 0 0 .682-.275.917.917 0 0 0 .277-.678V.954a.917.917 0 0 0-.277-.679.928.928 0 0 0-.682-.275h-4.608a.889.889 0 0 0-.646.275.92.92 0 0 0-.276.679v3.41c0 .27.086.496.258.68a.87.87 0 0 0 .664.274h4.608zm0 21.713a.963.963 0 0 0 .682-.256.859.859 0 0 0 .277-.66V8.874a.859.859 0 0 0-.277-.66.963.963 0 0 0-.682-.256h-4.608a.921.921 0 0 0-.646.257.861.861 0 0 0-.276.66v17.238c0 .245.092.459.276.642.185.184.4.275.646.275h4.608zm9.55 0a.869.869 0 0 0 .664-.275.908.908 0 0 0 .258-.642V1.906a.891.891 0 0 0-.258-.66.9.9 0 0 0-.664-.257h-4.608a.963.963 0 0 0-.682.257.859.859 0 0 0-.277.66v24.208c0 .269.092.489.277.66a.963.963 0 0 0 .682.257h4.608zM153.349 34c.516 0 .897-.257 1.143-.77l10.434-24.024a1.5 1.5 0 0 0 .074-.477.734.734 0 0 0-.24-.532.78.78 0 0 0-.571-.238h-4.351c-.491 0-.86.257-1.106.77l-4.203 10.416-4.093-10.416c-.196-.513-.553-.77-1.069-.77h-4.387a.783.783 0 0 0-.572.238c-.16.16-.264.36-.313.605 0 .074.037.208.11.404l7.079 16.651-2.912 6.896c-.05.147-.074.306-.074.477a.753.753 0 0 0 .774.77h4.277z" fill="#fff"/></svg>