<svg width="115" height="24" viewBox="0 0 115 24" fill="none" xmlns="http://www.w3.org/2000/svg"><mask id="a" maskUnits="userSpaceOnUse" x="0" y="0" width="23" height="24"><path fill-rule="evenodd" clip-rule="evenodd" d="M0 0h22.303v23.697H0V0z" fill="#fff"/></mask><g mask="url(#a)" fill-rule="evenodd" clip-rule="evenodd" fill="#3781C2"><path d="M5.234 13.023V7.617H0v5.406c0 6.285 5.038 10.674 12.25 10.674h4.906v-4.775H12.25c-4.328 0-7.016-2.26-7.016-5.9z"/><path d="M12.119 0L9.436.002l.002 4.872h2.68c4.626 0 5.02 3.35 5.03 4.376l.003.263H9.445v4.875h12.822l.03-2.41c0-.013.014-1.294 0-2.775C22.251 4.771 19.046 0 12.118 0z"/></g><path fill-rule="evenodd" clip-rule="evenodd" d="M41.632 19.096c1.319 0 2.462-.213 3.43-.64.968-.425 1.705-.936 2.21-1.533.506-.596.758-1.116.758-1.56a.435.435 0 0 0-.167-.345.599.599 0 0 0-.398-.14H44.1c-.206 0-.356.021-.45.064-.094.042-.218.149-.373.32a3.423 3.423 0 0 1-.706.626c-.249.162-.578.243-.99.243-.633 0-1.122-.235-1.464-.704-.343-.468-.523-1.086-.54-1.853v-.153h8.146a.648.648 0 0 0 .475-.192.641.641 0 0 0 .193-.473v-.639c0-1.312-.252-2.484-.758-3.515a5.598 5.598 0 0 0-2.287-2.428c-1.02-.588-2.266-.882-3.739-.882-2.039 0-3.657.57-4.857 1.712-1.199 1.142-1.833 2.727-1.901 4.755v.793c.034 2.13.65 3.753 1.85 4.87 1.2 1.116 2.844 1.674 4.934 1.674zm2.03-8.283h-4.086v-.05c0-.819.175-1.454.527-1.905.35-.452.852-.678 1.503-.678.651 0 1.156.226 1.516.678.36.451.54 1.086.54 1.904v.051zm10.1 8.027a.606.606 0 0 0 .462-.192.633.633 0 0 0 .18-.447v-7.107c0-.766.17-1.333.513-1.7.343-.366.78-.55 1.311-.55.548 0 .994.184 1.336.55.343.367.514.942.514 1.726v7.081a.6.6 0 0 0 .193.46.67.67 0 0 0 .475.18h3.161a.606.606 0 0 0 .463-.193.633.633 0 0 0 .18-.447v-7.08c0-.785.167-1.36.5-1.726.335-.367.767-.55 1.298-.55.566 0 1.015.183 1.35.55.334.366.5.941.5 1.725v7.081a.6.6 0 0 0 .193.46c.129.12.287.18.476.18h3.16a.606.606 0 0 0 .463-.193.633.633 0 0 0 .18-.447v-7.26c0-1.875-.441-3.285-1.323-4.23-.883-.946-2.026-1.42-3.431-1.42-.84 0-1.628.205-2.364.614-.737.41-1.31.937-1.722 1.585-.702-1.466-1.996-2.198-3.88-2.198-.823 0-1.56.17-2.21.51-.651.342-1.182.76-1.593 1.253v-.869a.62.62 0 0 0-.18-.46.628.628 0 0 0-.463-.179h-2.98a.64.64 0 0 0-.45.18.6.6 0 0 0-.193.46V18.2c0 .17.064.32.193.447a.618.618 0 0 0 .45.192h3.237zm27.24.255c1.66 0 2.967-.52 3.918-1.559.95-1.04 1.46-2.522 1.529-4.448.017-.222.026-.52.026-.895l-.001-.189a11.04 11.04 0 0 0-.025-.731c-.069-1.858-.582-3.32-1.542-4.384-.96-1.065-2.261-1.598-3.906-1.598-1.542 0-2.784.494-3.726 1.483V1.329a.62.62 0 0 0-.18-.46.628.628 0 0 0-.462-.18h-3.315a.673.673 0 0 0-.476.18.6.6 0 0 0-.192.46V18.2a.6.6 0 0 0 .192.46.675.675 0 0 0 .476.179h3.058a.606.606 0 0 0 .462-.192.634.634 0 0 0 .18-.447v-.793c.925 1.125 2.253 1.687 3.983 1.687zm-1.491-3.552c-.737 0-1.285-.235-1.645-.703-.36-.469-.557-1.061-.591-1.777a14.325 14.325 0 0 1-.026-.971c0-.41.009-.725.026-.946.034-.665.235-1.214.604-1.65.368-.434.912-.65 1.632-.65.77 0 1.323.225 1.657.677.334.451.527 1.077.578 1.878.017.17.026.435.026.793v.147c-.003.284-.011.5-.026.645-.051.801-.244 1.428-.578 1.88-.334.45-.887.677-1.657.677zM91.974 3.707a.648.648 0 0 0 .475-.192.641.641 0 0 0 .193-.473V.665a.641.641 0 0 0-.193-.473.648.648 0 0 0-.475-.192h-3.212a.618.618 0 0 0-.45.192.64.64 0 0 0-.193.473v2.377c0 .188.06.345.18.473s.274.192.463.192h3.212zm0 15.133c.188 0 .347-.06.475-.179a.6.6 0 0 0 .193-.46V6.186a.6.6 0 0 0-.193-.46.673.673 0 0 0-.475-.179h-3.212a.64.64 0 0 0-.45.179.6.6 0 0 0-.193.46v12.015c0 .17.064.32.193.447a.618.618 0 0 0 .45.192h3.212zm6.656 0a.606.606 0 0 0 .463-.192.633.633 0 0 0 .18-.447V1.329a.62.62 0 0 0-.18-.46.628.628 0 0 0-.463-.18h-3.212a.672.672 0 0 0-.475.18.6.6 0 0 0-.193.46V18.2a.6.6 0 0 0 .193.46.673.673 0 0 0 .475.179h3.212zm8.249 4.857c.36 0 .625-.179.797-.537l7.272-16.744c.034-.102.051-.213.051-.332a.51.51 0 0 0-.167-.37.544.544 0 0 0-.398-.167h-3.032c-.343 0-.6.179-.771.537l-2.93 7.26-2.852-7.26c-.137-.358-.386-.537-.745-.537h-3.058a.548.548 0 0 0-.399.166.802.802 0 0 0-.218.422 1 1 0 0 0 .077.281l4.934 11.606-2.03 4.806a1.047 1.047 0 0 0-.052.332c0 .154.052.282.155.384a.522.522 0 0 0 .385.153h2.981z" fill="#013461"/></svg>