<svg width="115" height="24" viewBox="0 0 115 24" fill="none" xmlns="http://www.w3.org/2000/svg">
<mask id="mask0" mask-type="alpha" maskUnits="userSpaceOnUse" x="0" y="0" width="23" height="24">
<path fill-rule="evenodd" clip-rule="evenodd" d="M0 0H22.3032V23.6971H0V0Z" fill="white"/>
</mask>
<g mask="url(#mask0)">
<path fill-rule="evenodd" clip-rule="evenodd" d="M5.23353 13.0225V7.61719H0V13.0225C0 19.3077 5.03764 23.6974 12.2504 23.6974H17.1563V18.9218H12.2504C7.92241 18.9218 5.23353 16.6613 5.23353 13.0225Z" fill="#3781C2"/>
<path fill-rule="evenodd" clip-rule="evenodd" d="M12.1186 0L9.43555 0.00207276L9.43776 4.87393L12.1186 4.87436C16.7439 4.87436 17.1375 8.22341 17.1479 9.24993L17.151 9.51276H9.44458V14.3876H22.2675L22.2962 11.9779C22.2964 11.9651 22.3109 10.684 22.2962 9.2034C22.2518 4.7707 19.0479 0 12.1186 0Z" fill="#3781C2"/>
</g>
<path fill-rule="evenodd" clip-rule="evenodd" d="M41.6318 19.0959C42.9509 19.0959 44.0944 18.8828 45.0624 18.4568C46.0303 18.0307 46.767 17.5195 47.2724 16.923C47.7777 16.3265 48.0304 15.8067 48.0304 15.3636C48.0304 15.2273 47.9747 15.1122 47.8634 15.0185C47.752 14.9248 47.6193 14.8779 47.4651 14.8779H44.0987C43.8931 14.8779 43.7432 14.8992 43.649 14.9418C43.5548 14.9844 43.4306 15.0909 43.2764 15.2613C43.0537 15.517 42.8181 15.7257 42.5697 15.8877C42.3213 16.0496 41.9915 16.1305 41.5804 16.1305C40.9465 16.1305 40.4583 15.8962 40.1156 15.4275C39.773 14.9588 39.5931 14.3411 39.576 13.5742V13.4208H47.7221C47.9105 13.4208 48.069 13.3569 48.1975 13.2291C48.3259 13.1012 48.3902 12.9436 48.3902 12.7561V12.117C48.3902 10.8048 48.1375 9.63313 47.6321 8.60207C47.1267 7.57101 46.3644 6.7615 45.345 6.17354C44.3257 5.58558 43.0794 5.2916 41.6061 5.2916C39.5674 5.2916 37.9485 5.86252 36.7493 7.00435C35.5501 8.14619 34.9162 9.73112 34.8477 11.7592V12.5516C34.8819 14.6819 35.4987 16.3052 36.6979 17.4215C37.8971 18.5377 39.5417 19.0959 41.6318 19.0959ZM43.6618 10.8132H39.5759V10.7621C39.5759 9.94405 39.7515 9.30923 40.1027 8.85761C40.4539 8.40599 40.955 8.18018 41.606 8.18018C42.257 8.18018 42.7624 8.40599 43.1221 8.85761C43.4819 9.30923 43.6618 9.94405 43.6618 10.7621V10.8132ZM53.7611 18.8402C53.9495 18.8402 54.1037 18.7763 54.2236 18.6485C54.3435 18.5207 54.4035 18.3716 54.4035 18.2011V11.0945C54.4035 10.3276 54.5748 9.76094 54.9174 9.39453C55.2601 9.02812 55.6969 8.84492 56.228 8.84492C56.7762 8.84492 57.2216 9.02812 57.5643 9.39453C57.9069 9.76094 58.0782 10.3361 58.0782 11.1201V18.2011C58.0782 18.3886 58.1425 18.542 58.271 18.6613C58.3994 18.7806 58.5579 18.8402 58.7464 18.8402H61.9071C62.0956 18.8402 62.2498 18.7763 62.3697 18.6485C62.4896 18.5207 62.5496 18.3716 62.5496 18.2011V11.1201C62.5496 10.3361 62.7166 9.76094 63.0507 9.39453C63.3847 9.02812 63.8173 8.84492 64.3484 8.84492C64.9137 8.84492 65.3634 9.02812 65.6975 9.39453C66.0316 9.76094 66.1986 10.3361 66.1986 11.1201V18.2011C66.1986 18.3886 66.2628 18.542 66.3913 18.6613C66.5198 18.7806 66.6783 18.8402 66.8667 18.8402H70.0275C70.216 18.8402 70.3701 18.7763 70.4901 18.6485C70.61 18.5207 70.67 18.3716 70.67 18.2011V10.9411C70.67 9.06647 70.2288 7.65622 69.3465 6.71037C68.4643 5.76452 67.3207 5.2916 65.9159 5.2916C65.0765 5.2916 64.2884 5.49611 63.5518 5.90512C62.8151 6.31414 62.2412 6.84245 61.83 7.49006C61.1277 6.02442 59.8342 5.2916 57.9497 5.2916C57.1274 5.2916 56.3908 5.46202 55.7398 5.80287C55.0888 6.14372 54.5577 6.56125 54.1465 7.05548V6.18632C54.1465 5.99886 54.0866 5.84548 53.9666 5.72618C53.8467 5.60688 53.6925 5.54724 53.5041 5.54724H50.5232C50.3519 5.54724 50.202 5.60688 50.0735 5.72618C49.945 5.84548 49.8808 5.99886 49.8808 6.18632V18.2011C49.8808 18.3716 49.945 18.5207 50.0735 18.6485C50.202 18.7763 50.3519 18.8402 50.5232 18.8402H53.7611ZM81.0011 19.0953C82.6629 19.0953 83.9692 18.5755 84.92 17.536C85.8708 16.4964 86.3805 15.0137 86.449 13.0879C86.4661 12.8664 86.4747 12.5681 86.4747 12.1932L86.474 12.0043C86.4716 11.7013 86.4633 11.4575 86.449 11.2729C86.3805 9.4153 85.8665 7.95392 84.9071 6.88878C83.9478 5.82364 82.6458 5.29107 81.0011 5.29107C79.4593 5.29107 78.2172 5.78529 77.275 6.77375V1.32873C77.275 1.14127 77.215 0.987886 77.0951 0.868589C76.9752 0.749293 76.821 0.689645 76.6326 0.689645H73.3176C73.1292 0.689645 72.9707 0.749293 72.8422 0.868589C72.7137 0.987886 72.6495 1.14127 72.6495 1.32873V18.2006C72.6495 18.3881 72.7137 18.5415 72.8422 18.6607C72.9707 18.78 73.1292 18.8397 73.3176 18.8397H76.3756C76.564 18.8397 76.7182 18.7758 76.8382 18.648C76.9581 18.5201 77.018 18.371 77.018 18.2006V17.4081C77.9431 18.5329 79.2708 19.0953 81.0011 19.0953ZM79.5106 15.5427C78.7739 15.5427 78.2257 15.3084 77.8659 14.8397C77.5062 14.371 77.3092 13.7788 77.2749 13.063C77.2578 12.8244 77.2492 12.5006 77.2492 12.0916C77.2492 11.6826 77.2578 11.3673 77.2749 11.1458C77.3092 10.4811 77.5105 9.93151 77.8788 9.49693C78.2471 9.06236 78.791 8.84507 79.5106 8.84507C80.2815 8.84507 80.834 9.07088 81.1681 9.5225C81.5021 9.97412 81.6949 10.6004 81.7463 11.4014C81.7634 11.5718 81.7719 11.836 81.7719 12.1939L81.7714 12.3415C81.7693 12.6253 81.7609 12.8403 81.7463 12.9863C81.6949 13.7873 81.5021 14.4136 81.1681 14.8653C80.834 15.3169 80.2815 15.5427 79.5106 15.5427ZM91.9739 3.7067C92.1623 3.7067 92.3208 3.64279 92.4493 3.51497C92.5777 3.38716 92.642 3.22951 92.642 3.04205V0.664649C92.642 0.477184 92.5777 0.319543 92.4493 0.191726C92.3208 0.0639086 92.1623 0 91.9739 0H88.7617C88.5904 0 88.4405 0.0639086 88.312 0.191726C88.1835 0.319543 88.1192 0.477184 88.1192 0.664649V3.04205C88.1192 3.22951 88.1792 3.38716 88.2991 3.51497C88.4191 3.64279 88.5732 3.7067 88.7617 3.7067H91.9739ZM91.9739 18.8401C92.1623 18.8401 92.3208 18.7804 92.4493 18.6611C92.5778 18.5418 92.642 18.3885 92.642 18.201V6.18616C92.642 5.99869 92.5778 5.84531 92.4493 5.72602C92.3208 5.60672 92.1623 5.54707 91.9739 5.54707H88.7617C88.5904 5.54707 88.4405 5.60672 88.312 5.72602C88.1835 5.84531 88.1193 5.99869 88.1193 6.18616V18.201C88.1193 18.3714 88.1835 18.5205 88.312 18.6484C88.4405 18.7762 88.5904 18.8401 88.7617 18.8401H91.9739ZM98.6304 18.8397C98.8188 18.8397 98.973 18.7758 99.0929 18.648C99.2129 18.5202 99.2728 18.371 99.2728 18.2006V1.32873C99.2728 1.14127 99.2129 0.987886 99.0929 0.86859C98.973 0.749293 98.8188 0.689645 98.6304 0.689645H95.4182C95.2297 0.689645 95.0713 0.749293 94.9428 0.86859C94.8143 0.987886 94.7501 1.14127 94.7501 1.32873V18.2006C94.7501 18.3881 94.8143 18.5415 94.9428 18.6608C95.0713 18.78 95.2297 18.8397 95.4182 18.8397H98.6304ZM106.879 23.6971C107.239 23.6971 107.504 23.5182 107.676 23.1603L114.948 6.41623C114.982 6.31398 114.999 6.2032 114.999 6.0839C114.999 5.94757 114.944 5.82401 114.832 5.71323C114.721 5.60246 114.588 5.54707 114.434 5.54707H111.402C111.059 5.54707 110.802 5.72602 110.631 6.0839L107.701 13.3439L104.849 6.0839C104.712 5.72602 104.463 5.54707 104.104 5.54707H101.046C100.892 5.54707 100.759 5.60246 100.647 5.71323C100.536 5.82401 100.463 5.96461 100.429 6.13503C100.429 6.18616 100.455 6.27989 100.506 6.41623L105.44 18.022L103.41 22.828C103.376 22.9302 103.358 23.041 103.358 23.1603C103.358 23.3137 103.41 23.4415 103.513 23.5437C103.615 23.646 103.744 23.6971 103.898 23.6971H106.879Z" fill="#013461"/>
</svg>
