<svg width="165" height="34" viewBox="0 0 165 34" fill="none" xmlns="http://www.w3.org/2000/svg">
<mask id="mask0" mask-type="alpha" maskUnits="userSpaceOnUse" x="0" y="0" width="32" height="34">
<path fill-rule="evenodd" clip-rule="evenodd" d="M0 0H32V34H0V0Z" fill="white"/>
</mask>
<g mask="url(#mask0)">
<path fill-rule="evenodd" clip-rule="evenodd" d="M7.50893 18.6841V10.9287H0V18.6841C0 27.702 7.22786 34.0001 17.5766 34.0001H24.6154V27.1482H17.5766C11.3669 27.1482 7.50893 23.9049 7.50893 18.6841Z" fill="#9ED1FF"/>
<path fill-rule="evenodd" clip-rule="evenodd" d="M17.3886 0L13.5391 0.00297393L13.5422 6.99298L17.3886 6.9936C24.0249 6.9936 24.5896 11.7987 24.6045 13.2715L24.609 13.6486H13.552V20.6429H31.95L31.9912 17.1855C31.9914 17.1671 32.0123 15.3291 31.9912 13.2048C31.9275 6.84487 27.3306 0 17.3886 0Z" fill="#9ED1FF"/>
</g>
<path fill-rule="evenodd" clip-rule="evenodd" d="M59.7337 27.3984C61.6263 27.3984 63.267 27.0927 64.6558 26.4814C66.0446 25.8701 67.1015 25.1366 67.8266 24.2807C68.5517 23.4249 68.9143 22.6791 68.9143 22.0434C68.9143 21.8478 68.8344 21.6827 68.6746 21.5483C68.5148 21.4138 68.3244 21.3465 68.1031 21.3465H63.2732C62.9782 21.3465 62.7631 21.3771 62.6279 21.4382C62.4928 21.4993 62.3146 21.6522 62.0933 21.8967C61.7738 22.2635 61.4358 22.563 61.0794 22.7953C60.723 23.0276 60.2498 23.1437 59.6599 23.1437C58.7505 23.1437 58.0499 22.8075 57.5583 22.1351C57.0667 21.4627 56.8086 20.5763 56.7841 19.476V19.2559H68.4718C68.7422 19.2559 68.9696 19.1642 69.1539 18.9808C69.3383 18.7974 69.4304 18.5712 69.4304 18.3023V17.3853C69.4304 15.5025 69.0679 13.8215 68.3428 12.3421C67.6177 10.8628 66.5239 9.70135 65.0614 8.85776C63.5989 8.01417 61.8107 7.59238 59.6968 7.59238C56.7718 7.59238 54.449 8.41151 52.7284 10.0498C51.0078 11.6881 50.0983 13.9621 50 16.8718V18.0089C50.0492 21.0653 50.934 23.3944 52.6546 24.996C54.3752 26.5976 56.7349 27.3984 59.7337 27.3984ZM62.6466 15.5147H56.7843V15.4413C56.7843 14.2677 57.0362 13.3568 57.5401 12.7089C58.044 12.0609 58.7629 11.7369 59.697 11.7369C60.631 11.7369 61.3561 12.0609 61.8723 12.7089C62.3885 13.3568 62.6466 14.2677 62.6466 15.4413V15.5147ZM77.1368 27.0316C77.4072 27.0316 77.6284 26.9399 77.8005 26.7565C77.9725 26.5731 78.0586 26.3591 78.0586 26.1146V15.9182C78.0586 14.8179 78.3044 14.0049 78.796 13.4792C79.2876 12.9534 79.9144 12.6906 80.6763 12.6906C81.4629 12.6906 82.102 12.9534 82.5936 13.4792C83.0852 14.0049 83.331 14.8301 83.331 15.9549V26.1146C83.331 26.3836 83.4231 26.6037 83.6075 26.7748C83.7918 26.946 84.0192 27.0316 84.2896 27.0316H88.8246C89.095 27.0316 89.3162 26.9399 89.4882 26.7565C89.6603 26.5731 89.7463 26.3591 89.7463 26.1146V15.9549C89.7463 14.8301 89.986 14.0049 90.4653 13.4792C90.9446 12.9534 91.5652 12.6906 92.3272 12.6906C93.1384 12.6906 93.7836 12.9534 94.2629 13.4792C94.7422 14.0049 94.9819 14.8301 94.9819 15.9549V26.1146C94.9819 26.3836 95.074 26.6037 95.2584 26.7748C95.4427 26.946 95.6701 27.0316 95.9405 27.0316H100.475C100.746 27.0316 100.967 26.9399 101.139 26.7565C101.311 26.5731 101.397 26.3591 101.397 26.1146V15.6982C101.397 13.0085 100.764 10.9851 99.4984 9.62799C98.2326 8.27092 96.5918 7.59238 94.5763 7.59238C93.3719 7.59238 92.2412 7.8858 91.1843 8.47264C90.1273 9.05949 89.3039 9.81749 88.714 10.7467C87.7062 8.64381 85.8504 7.59238 83.1466 7.59238C81.9668 7.59238 80.9098 7.8369 79.9758 8.32593C79.0418 8.81497 78.2798 9.41404 77.6899 10.1231V8.8761C77.6899 8.60713 77.6038 8.38706 77.4318 8.2159C77.2597 8.04474 77.0385 7.95915 76.7681 7.95915H72.4912C72.2454 7.95915 72.0303 8.04474 71.846 8.2159C71.6616 8.38706 71.5695 8.60713 71.5695 8.8761V26.1146C71.5695 26.3591 71.6616 26.5731 71.846 26.7565C72.0303 26.9399 72.2454 27.0316 72.4912 27.0316H77.1368ZM116.22 27.3974C118.604 27.3974 120.478 26.6516 121.842 25.1601C123.206 23.6685 123.938 21.5412 124.036 18.7781C124.061 18.4603 124.073 18.0324 124.073 17.4944L124.072 17.2234C124.068 16.7887 124.056 16.4389 124.036 16.174C123.938 13.5088 123.2 11.412 121.824 9.88379C120.447 8.35555 118.579 7.59143 116.22 7.59143C114.007 7.59143 112.225 8.30054 110.873 9.71874V1.90639C110.873 1.63742 110.787 1.41735 110.615 1.24619C110.443 1.07502 110.222 0.989443 109.952 0.989443H105.195C104.925 0.989443 104.698 1.07502 104.513 1.24619C104.329 1.41735 104.237 1.63742 104.237 1.90639V26.1137C104.237 26.3827 104.329 26.6027 104.513 26.7739C104.698 26.945 104.925 27.0306 105.195 27.0306H109.583C109.853 27.0306 110.075 26.9389 110.247 26.7555C110.419 26.5722 110.505 26.3582 110.505 26.1137V24.9767C111.832 26.5905 113.737 27.3974 116.22 27.3974ZM114.081 22.3001C113.024 22.3001 112.237 21.9639 111.721 21.2915C111.205 20.6191 110.922 19.7694 110.873 18.7424C110.849 18.4001 110.836 17.9355 110.836 17.3486C110.836 16.7618 110.849 16.3094 110.873 15.9915C110.922 15.0379 111.211 14.2494 111.74 13.6258C112.268 13.0023 113.049 12.6906 114.081 12.6906C115.187 12.6906 115.98 13.0145 116.459 13.6625C116.938 14.3105 117.215 15.2091 117.289 16.3583C117.313 16.6028 117.325 16.9818 117.325 17.4953L117.325 17.7072C117.322 18.1144 117.31 18.4228 117.289 18.6323C117.215 19.7816 116.938 20.6802 116.459 21.3282C115.98 21.9761 115.187 22.3001 114.081 22.3001ZM131.963 5.31827C132.234 5.31827 132.461 5.22657 132.645 5.04319C132.83 4.8598 132.922 4.63362 132.922 4.36465V0.953621C132.922 0.684651 132.83 0.458471 132.645 0.275083C132.461 0.0916943 132.234 0 131.963 0H127.355C127.109 0 126.894 0.0916943 126.709 0.275083C126.525 0.458471 126.433 0.684651 126.433 0.953621V4.36465C126.433 4.63362 126.519 4.8598 126.691 5.04319C126.863 5.22657 127.084 5.31827 127.355 5.31827H131.963ZM131.963 27.0312C132.234 27.0312 132.461 26.9457 132.645 26.7745C132.83 26.6033 132.922 26.3833 132.922 26.1143V8.87576C132.922 8.60679 132.83 8.38672 132.645 8.21556C132.461 8.0444 132.234 7.95882 131.963 7.95882H127.355C127.109 7.95882 126.894 8.0444 126.709 8.21556C126.525 8.38672 126.433 8.60679 126.433 8.87576V26.1143C126.433 26.3588 126.525 26.5728 126.709 26.7562C126.894 26.9396 127.109 27.0312 127.355 27.0312H131.963ZM141.513 27.0306C141.784 27.0306 142.005 26.9389 142.177 26.7555C142.349 26.5722 142.435 26.3582 142.435 26.1137V1.90639C142.435 1.63742 142.349 1.41735 142.177 1.24619C142.005 1.07502 141.784 0.989443 141.513 0.989443H136.905C136.634 0.989443 136.407 1.07502 136.223 1.24619C136.038 1.41735 135.946 1.63742 135.946 1.90639V26.1137C135.946 26.3827 136.038 26.6027 136.223 26.7739C136.407 26.9451 136.634 27.0306 136.905 27.0306H141.513ZM153.349 34C153.865 34 154.246 33.7433 154.492 33.2298L164.926 9.20586C164.975 9.05915 165 8.90021 165 8.72905C165 8.53343 164.92 8.35616 164.76 8.19722C164.601 8.03829 164.41 7.95882 164.189 7.95882H159.838C159.347 7.95882 158.978 8.21556 158.732 8.72905L154.529 19.1455L150.436 8.72905C150.24 8.21556 149.883 7.95882 149.367 7.95882H144.98C144.758 7.95882 144.568 8.03829 144.408 8.19722C144.248 8.35616 144.144 8.55789 144.095 8.80241C144.095 8.87576 144.132 9.01025 144.205 9.20586L151.284 25.8575L148.372 32.753C148.322 32.8997 148.298 33.0586 148.298 33.2298C148.298 33.4498 148.372 33.6332 148.519 33.7799C148.667 33.9267 148.851 34 149.072 34H153.349Z" fill="white"/>
</svg>
