<svg width="24" height="24" viewBox="0 0 24 24" fill="none" xmlns="http://www.w3.org/2000/svg"><g clip-path="url(#a)"><path d="M12.236 24h-.239a83.412 83.412 0 0 1-5.31-.146c-1.55-.095-2.964-.63-4.09-1.55-1.088-.886-1.83-2.085-2.208-3.562-.328-1.286-.345-2.549-.362-3.77-.012-.876-.024-1.914-.027-2.97.003-1.06.015-2.098.027-2.974.017-1.221.034-2.484.362-3.77.377-1.477 1.12-2.676 2.207-3.563C3.723.776 5.138.241 6.688.146c1.69-.102 3.429-.15 5.314-.146 1.882-.004 3.62.044 5.31.146 1.55.095 2.964.63 4.091 1.55 1.088.886 1.83 2.085 2.207 3.562.328 1.286.345 2.549.362 3.77.012.876.025 1.914.027 2.97v.004a258.853 258.853 0 0 1-.027 2.97c-.017 1.221-.034 2.484-.362 3.77-.377 1.477-1.12 2.676-2.207 3.563-1.127.919-2.541 1.454-4.091 1.549a82.996 82.996 0 0 1-5.076.146zm-.239-1.875c1.85.004 3.55-.043 5.2-.143 1.173-.071 2.189-.452 3.021-1.13.77-.628 1.3-1.494 1.575-2.573.273-1.071.289-2.22.304-3.332.012-.87.024-1.901.027-2.947a265.008 265.008 0 0 0-.027-2.947c-.015-1.111-.03-2.26-.304-3.332-.276-1.08-.805-1.945-1.575-2.573-.832-.679-1.848-1.059-3.02-1.13-1.65-.1-3.35-.147-5.196-.143-1.85-.004-3.55.042-5.2.143-1.173.071-2.189.451-3.021 1.13-.77.628-1.3 1.493-1.575 2.573-.273 1.071-.289 2.22-.304 3.332a264.2 264.2 0 0 0-.027 2.95c.003 1.041.015 2.073.027 2.944.015 1.111.03 2.26.304 3.332.276 1.08.806 1.945 1.575 2.573.832.678 1.848 1.058 3.02 1.13 1.651.1 3.35.147 5.196.143zm-.044-4.266A5.866 5.866 0 0 1 6.093 12a5.866 5.866 0 0 1 5.86-5.858 5.866 5.866 0 0 1 5.859 5.859c0 3.23-2.629 5.86-5.86 5.86zm0-9.843A3.989 3.989 0 0 0 7.968 12a3.989 3.989 0 0 0 3.985 3.984A3.989 3.989 0 0 0 15.937 12a3.989 3.989 0 0 0-3.984-3.984zm6.515-3.75a1.406 1.406 0 1 0 0 2.812 1.406 1.406 0 0 0 0-2.812z" fill="#9ED1FF"/></g><defs><clipPath id="a"><path fill="#fff" d="M0 0h24v24H0z"/></clipPath></defs></svg>