<svg width="24" height="24" viewBox="0 0 24 24" fill="none" xmlns="http://www.w3.org/2000/svg"><g clip-path="url(#a)"><path d="M.339 4.422L2.936 6.13v10.867L.224 19.673c-.476.47-.141 1.284.527 1.284H6.62c.667 0 1.004-.812.527-1.284l-2.712-2.676V9.085C7.215 15 9.927 20.758 9.862 20.627c.274.556 1.14.57 1.376-.075v-.002l.002-.002 1.954-5.394 2.458-7.011v9.773l-1.74 1.765a.75.75 0 0 0 .533 1.277h8.805c.663 0 1-.8.537-1.274l-1.674-1.713-.066-11.933 1.73-1.708c.476-.471.142-1.284-.527-1.284l-6.87.004c-.957.028-.633.889-3.985 9.772l-4.11-9.33a.752.752 0 0 0-.687-.447H.75c-.742 0-1.033.97-.412 1.377zm2.239 15.036l1.107-1.093 1.107 1.093H2.578zM17.153 4.546h4.27c-.478.535-.88.69-.878 1.185l.07 12.55c.003.477.392.644.855 1.176h-5.23c.517-.587.914-.748.914-1.234V4.546h-.002zm-10.044 0l4.553 10.335-1.226 3.447C4.262 5.212 4.479 5.006 3.257 4.546H7.11z" fill="#9ED1FF"/></g><defs><clipPath id="a"><path fill="#fff" d="M0 0h24v24H0z"/></clipPath></defs></svg>