<svg width="24" height="24" viewBox="0 0 24 24" fill="none" xmlns="http://www.w3.org/2000/svg"><g clip-path="url(#a)"><path d="M23.63 2.384c-.294-.358-.733-.556-1.237-.556-.274 0-.565.058-.863.172L1.214 9.755C.136 10.166-.009 10.784 0 11.115c.01.332.19.94 1.29 1.29a.494.494 0 0 0 .02.006l4.213 1.206 2.28 6.516c.31.889 1.007 1.44 1.82 1.44.512 0 1.016-.214 1.456-.62l2.607-2.4 3.78 3.044.002.001.036.03.01.007c.42.326.879.498 1.327.498.875 0 1.572-.648 1.775-1.65l3.33-16.437c.133-.66.02-1.25-.317-1.662zM6.932 13.388l8.13-4.154L10 14.614a.702.702 0 0 0-.17.313l-.977 3.954-1.921-5.493zm3.194 6.53c-.034.032-.068.06-.102.085l.906-3.668 1.647 1.326-2.451 2.258zm12.44-16.15l-3.329 16.436c-.032.157-.134.523-.397.523-.13 0-.294-.07-.46-.2l-4.285-3.449-.002-.001-2.549-2.053 7.32-7.779a.703.703 0 0 0-.83-1.108L5.992 12.288l-4.27-1.222 20.309-7.752a1.03 1.03 0 0 1 .36-.08c.044 0 .12.006.149.04.037.046.085.202.026.493z" fill="#9ED1FF"/></g><defs><clipPath id="a"><path fill="#fff" d="M0 0h24v24H0z"/></clipPath></defs></svg>